<svg xmlns="http://www.w3.org/2000/svg" xmlns:xlink="http://www.w3.org/1999/xlink" viewBox="0 0 842.89 596.28"><defs><style>.cls-1,.cls-3{fill:#22223b;}.cls-1,.cls-6{stroke:#fff;}.cls-1,.cls-2,.cls-4,.cls-6{stroke-miterlimit:10;}.cls-1,.cls-4,.cls-6{stroke-width:0.73px;}.cls-2{stroke:#231f20;}.cls-4{fill:#c9ada7;stroke:#4a4e69;}.cls-5{clip-path:url(#clip-path);}.cls-6{fill:none;}.cls-7{fill:#fff;}.cls-8{fill:#e5e5e5;}</style><clipPath id="clip-path" transform="translate(0.5 0.5)"><polygon class="cls-1" points="540.77 161.34 459.81 134.98 394.08 80.87 475.04 107.22 540.77 161.34"/></clipPath></defs><g id="Background"><rect class="cls-2" x="0.5" y="0.5" width="841.89" height="595.28"/></g><g id="logo"><polygon class="cls-3" points="633 182.42 576.6 193.49 590.32 210.9 476.05 312.08 369.86 273.57 224.12 397.96 222.61 422.98 373.81 290.89 477.23 325.52 608.02 218.63 616.26 239.36 633 182.42"/><polyline class="cls-4" points="348.95 221.49 348.95 231 306.16 231 306.16 221.49"/><polyline class="cls-4" points="306.16 383.11 306.16 378.36 348.95 378.36 348.95 383.11"/><path class="cls-4" d="M338.86,230.49s16.24,74.31,0,142.63h-23.6c-16.24-68.32,0-142.63,0-142.63Z" transform="translate(0.5 0.5)"/><path class="cls-4" d="M315.26,230.49s-16.24,74.31,0,142.63h23.6c1.37-5.77,2.49-11.59,3.43-17.4-3.72,16.59-14.87,9.89-20.43-14.43-5.42-23.7-5.33-64.2-1.69-110.8Z" transform="translate(0.5 0.5)"/><path class="cls-4" d="M338.86,230.49a376,376,0,0,1,6.68,55.09" transform="translate(0.5 0.5)"/><line class="cls-4" x1="306.16" y1="231" x2="306.16" y2="221.49"/><polyline class="cls-4" points="348.95 221.49 348.95 231 327.24 231"/><path class="cls-4" d="M315.26,373.12c-16.24-68.32,0-142.63,0-142.63" transform="translate(0.5 0.5)"/><path class="cls-4" d="M345.48,326.33a272.54,272.54,0,0,1-6.62,46.79" transform="translate(0.5 0.5)"/><polyline class="cls-4" points="324.87 373.6 348.95 373.6 348.95 383.11"/><polyline class="cls-4" points="306.16 383.11 306.16 373.6 315.76 373.6"/><rect class="cls-4" x="398.9" y="373.6" width="42.79" height="9.51"/><path class="cls-4" d="M431.59,230.49s16.24,74.31,0,142.63H408c-16.24-68.32,0-142.63,0-142.63Z" transform="translate(0.5 0.5)"/><path class="cls-4" d="M408,230.49s-16.24,74.31,0,142.63h23.6c1.37-5.77,2.5-11.59,3.43-17.4-3.72,16.59-14.87,9.89-20.43-14.43-5.41-23.7-5.32-64.2-1.69-110.8Z" transform="translate(0.5 0.5)"/><path class="cls-4" d="M431.59,230.49s16.24,74.31,0,142.63H408c-16.24-68.32,0-142.63,0-142.63" transform="translate(0.5 0.5)"/><polyline class="cls-4" points="398.9 221.49 398.9 231 441.69 231 441.69 221.49"/><polyline class="cls-4" points="431.72 231 441.69 231 441.69 221.49"/><polyline class="cls-4" points="398.9 221.49 398.9 231 418 231"/><polyline class="cls-4" points="398.9 383.11 398.9 378.36 441.69 378.36 441.69 383.11"/><polyline class="cls-4" points="398.9 383.11 398.9 373.6 441.69 373.6 441.69 383.11"/><rect class="cls-4" x="477.74" y="373.6" width="42.79" height="9.51"/><path class="cls-4" d="M510.43,230.49s16.24,74.31,0,142.63h-23.6c-16.24-68.32,0-142.63,0-142.63Z" transform="translate(0.5 0.5)"/><path class="cls-4" d="M486.83,230.49s-16.24,74.31,0,142.63h23.6c1.37-5.77,2.5-11.59,3.44-17.4-3.73,16.59-14.88,9.89-20.44-14.43-5.41-23.7-5.32-64.2-1.69-110.8Z" transform="translate(0.5 0.5)"/><path class="cls-4" d="M486.83,373.12c-5.72-24.06-7.41-48.87-7.2-70.92" transform="translate(0.5 0.5)"/><path class="cls-4" d="M480.15,285.51a376.77,376.77,0,0,1,6.68-55h23.6s16.24,74.31,0,142.63" transform="translate(0.5 0.5)"/><polyline class="cls-4" points="520.53 221.49 520.53 231 477.74 231 477.74 221.49"/><polyline class="cls-4" points="513.05 231 477.74 231 477.74 221.49"/><line class="cls-4" x1="520.53" y1="221.49" x2="520.53" y2="231"/><polyline class="cls-4" points="477.74 383.11 477.74 378.36 520.53 378.36 520.53 383.11"/><polyline class="cls-4" points="504.74 373.6 520.53 373.6 520.53 383.11"/><polyline class="cls-4" points="477.74 383.11 477.74 373.6 487.33 373.6"/><polygon class="cls-4" points="551.03 221.39 289.55 221.39 289.55 196.08 420.29 126.3 551.03 196.08 551.03 221.39"/><rect class="cls-4" x="289.55" y="216.63" width="261.48" height="4.75"/><polygon class="cls-4" points="294.3 221.39 289.55 221.39 289.55 196.53 294.3 193.94 294.3 221.39"/><rect class="cls-4" x="299.06" y="207.12" width="242.47" height="4.75"/><polygon class="cls-4" points="303.81 211.88 299.06 211.88 299.06 201.64 303.81 199.06 303.81 211.88"/><polyline class="cls-4" points="499.02 168.32 551.03 196.08 551.03 221.39 289.55 221.39 289.55 196.08 420.29 126.3 464.33 149.81"/><polyline class="cls-4" points="299.06 201.78 420.29 137.08 541.52 201.78 541.52 211.88 379.14 211.88"/><path class="cls-4" d="M400.77,178.46a19,19,0,0,0,28.48,16.48,20,20,0,0,1-2.33.16,19,19,0,0,1-9.46-35.51A19,19,0,0,0,400.77,178.46Z" transform="translate(0.5 0.5)"/><path class="cls-4" d="M434.8,166.93a19,19,0,1,1-15-7.34" transform="translate(0.5 0.5)"/><rect class="cls-4" x="295.49" y="383.13" width="249.6" height="11.89"/><rect class="cls-4" x="295.49" y="390.26" width="249.6" height="4.75"/><polyline class="cls-4" points="295.49 395.02 295.49 383.13 358.46 383.13"/><rect class="cls-4" x="283.61" y="406.9" width="273.37" height="11.89"/><rect class="cls-4" x="283.61" y="414.03" width="273.37" height="4.75"/><line class="cls-4" x1="406.88" y1="418.79" x2="299.63" y2="418.79"/><polyline class="cls-4" points="556.98 406.9 556.98 418.79 431.44 418.79"/><polyline class="cls-4" points="283.61 418.79 283.61 406.9 540.42 406.9"/><rect class="cls-4" x="289.55" y="402.15" width="261.48" height="4.75"/><polyline class="cls-4" points="551.03 395.02 551.03 406.9 289.55 406.9"/><path class="cls-4" d="M544.59,394.52" transform="translate(0.5 0.5)"/><polyline class="cls-4" points="289.55 402.15 289.55 395.02 545.09 395.02 545.09 383.13 389.39 383.13"/><polygon class="cls-1" points="539.8 164.53 458.83 138.18 393.1 84.06 394.58 81.37 474.06 110.41 541.27 161.84 539.8 164.53"/><path class="cls-1" d="M496.3,150l-6.23,11.35s-12.69,2-38.18-12-30.62-25.77-30.62-25.77l6.23-11.35Z" transform="translate(0.5 0.5)"/><polygon class="cls-3" points="541.27 161.84 460.31 135.48 394.58 81.37 475.54 107.72 541.27 161.84"/><g class="cls-5"><path class="cls-1" d="M475,107.22h0c-15.57-3-26.2,15.33-15.92,27.4l12.85,15.06s-93.62-64.29-93.26-64.94l14.14-26.3s94.05,38.37,94.84,38S475,107.22,475,107.22Z" transform="translate(0.5 0.5)"/></g><polygon class="cls-6" points="541.27 161.84 460.31 135.48 394.58 81.37 475.54 107.72 541.27 161.84"/><line class="cls-1" x1="456.62" y1="132.45" x2="426.35" y2="107.53"/><polyline class="cls-1" points="521.45 145.51 541.27 161.84 464.85 136.96"/><polyline class="cls-1" points="438.07 95.52 475.54 107.72 511.44 137.27"/><polyline class="cls-1" points="421.24 103.32 394.58 81.37 433.51 94.04"/><polyline class="cls-1" points="423.31 121.36 428 112.8 395.95 86.45"/><path class="cls-1" d="M494.21,153.85l-4.14,7.54s-12.69,2-38.18-12c-18.16-10-26-18.81-29-23.07" transform="translate(0.5 0.5)"/><path class="cls-1" d="M467.43,121.1,502,147.21a8.6,8.6,0,0,1,3.4,7.71c-.62,6-3.48,15.82-15,22.32" transform="translate(0.5 0.5)"/><path class="cls-1" d="M491.32,178.86a2.48,2.48,0,1,1-1.15-1.55" transform="translate(0.5 0.5)"/><path class="cls-1" d="M491.32,178.86a2.48,2.48,0,1,1-1.15-1.55" transform="translate(0.5 0.5)"/><path class="cls-1" d="M497.63,198.25l-7.65,1.9-3.35-13.51a3.93,3.93,0,0,1,2.87-4.77h0a3.94,3.94,0,0,1,4.78,2.87Z" transform="translate(0.5 0.5)"/><path class="cls-1" d="M497.63,198.25l-7.65,1.9-3.35-13.51a3.93,3.93,0,0,1,2.87-4.77h0a3.94,3.94,0,0,1,4.78,2.87Z" transform="translate(0.5 0.5)"/><line class="cls-1" x1="490.15" y1="188.38" x2="492.95" y2="199.92"/><line class="cls-1" x1="492.71" y1="187.6" x2="495.63" y2="199.15"/><circle class="cls-3" cx="421.04" cy="179.05" r="20.28" transform="translate(-35.97 175.25) rotate(-22.5)"/><circle class="cls-3" cx="418.54" cy="179.05" r="20.28" transform="translate(148.62 545.76) rotate(-76.72)"/><path class="cls-7" d="M418.84,190.59v-2.84a8.22,8.22,0,0,1-4.3-1.24l.67-1.88a7.52,7.52,0,0,0,4.05,1.21c2,0,3.34-1.15,3.34-2.76s-1.09-2.5-3.17-3.34c-2.87-1.12-4.64-2.42-4.64-4.86s1.66-4.11,4.24-4.53v-2.84h1.74v2.73a7.66,7.66,0,0,1,3.66,1l-.7,1.86a6.79,6.79,0,0,0-3.55-1c-2.16,0-3,1.3-3,2.42,0,1.46,1,2.19,3.48,3.2,2.9,1.18,4.36,2.65,4.36,5.15a4.88,4.88,0,0,1-4.44,4.77v2.93Z" transform="translate(0.5 0.5)"/><path class="cls-3" d="M406.9,157.23q-1.83-2.92-3.91-5.69c-.67-.88-2.11.07-1.44,1,1.39,1.84,2.69,3.73,3.91,5.69C406,159.14,407.48,158.18,406.9,157.23Z" transform="translate(0.5 0.5)"/><path class="cls-3" d="M416.46,155.48a43,43,0,0,1-.76-7.34c0-1.11-1.75-1-1.72.1a43.51,43.51,0,0,0,.85,7.8C415,157.12,416.68,156.56,416.46,155.48Z" transform="translate(0.5 0.5)"/><path class="cls-3" d="M425.2,148.72a22.43,22.43,0,0,0-2.5,6.4.87.87,0,0,0,1.69.37,20.71,20.71,0,0,1,2.35-6C427.3,148.54,425.76,147.76,425.2,148.72Z" transform="translate(0.5 0.5)"/><path class="cls-3" d="M437.42,151.13a31.15,31.15,0,0,0-4.8,6.33c-.56,1,1,1.75,1.54.79a29.37,29.37,0,0,1,4.55-6C439.49,151.49,438.2,150.34,437.42,151.13Z" transform="translate(0.5 0.5)"/><path class="cls-3" d="M222.78,422.68c-4-4.11,4.86-21.12.84-25.22,53.1-45.7,93.3-78.5,146.4-124.2q2,8.65,4,17.32Q298.37,356.63,222.78,422.68Z" transform="translate(0.5 0.5)"/><path class="cls-8" d="M285.5,471.91a41.53,41.53,0,0,1-4.5,8,32.08,32.08,0,0,1-5.18,5.67,19.43,19.43,0,0,1-5.42,3.34,14.43,14.43,0,0,1-5.34,1.09,9.87,9.87,0,0,1-4.76-1.17,10.89,10.89,0,0,1-3.67-3.51,20.22,20.22,0,0,1-2.59-5.76,31.17,31.17,0,0,1-.92-8,56.22,56.22,0,0,1,2.17-15.44,51.25,51.25,0,0,1,6.09-13.77,34,34,0,0,1,9.27-9.76,20.52,20.52,0,0,1,11.93-3.76,9.43,9.43,0,0,1,7,3.18,10.68,10.68,0,0,1,2.09,3.67,13.29,13.29,0,0,1,.83,4.84v1.08a7.09,7.09,0,0,1-.08,1.09l-10.93,2.92c-.67-1.39-1.45-2.09-2.34-2.09a4.14,4.14,0,0,0-2.84,1.59,20.61,20.61,0,0,0-2.83,4,50.44,50.44,0,0,0-2.76,5.51,63.58,63.58,0,0,0-2.34,6.09c-.66,2.06-1.22,4-1.66,5.93a22.74,22.74,0,0,0-.59,4.51,7.53,7.53,0,0,0,.67,3.75,2.27,2.27,0,0,0,1.92,1.09,4.33,4.33,0,0,0,2.08-.67,10.71,10.71,0,0,0,2.17-1.84,18.38,18.38,0,0,0,1.84-2.58,10.17,10.17,0,0,0,1.17-2.84Zm29.77-11.86a35.63,35.63,0,0,1-1,8.54,36.68,36.68,0,0,1-2.54,7.32,30.48,30.48,0,0,1-8.15,10.41,19.91,19.91,0,0,1-4.68,2.81,12.2,12.2,0,0,1-4.52.94,8,8,0,0,1-3.3-.66,7.71,7.71,0,0,1-2.59-2,10.47,10.47,0,0,1-1.76-3.47,18.76,18.76,0,0,1-.61-5.12,29.78,29.78,0,0,1,.77-6.5A47.22,47.22,0,0,1,289,465.5a38.38,38.38,0,0,1,3.25-6.39,31.37,31.37,0,0,1,4.25-5.34,19.34,19.34,0,0,1,4.95-3.74,11.78,11.78,0,0,1,5.51-1.38A7.31,7.31,0,0,1,311,449.7a6.75,6.75,0,0,1,2.53,2.64,11.18,11.18,0,0,1,1.32,3.64A21.5,21.5,0,0,1,315.27,460.05Zm-20.93,17.3a4.26,4.26,0,0,0,.82,2.42,4.4,4.4,0,0,0,.94.88,2.62,2.62,0,0,0,1.27.33,6.43,6.43,0,0,0,4.4-1.71,14,14,0,0,0,3.2-4.18,23.51,23.51,0,0,0,1.93-5.29,21.21,21.21,0,0,0,.71-5.12,9.22,9.22,0,0,0-.11-1.43,4.46,4.46,0,0,0-.33-1.44,2.36,2.36,0,0,0-.77-1.1,1.86,1.86,0,0,0-1.38-.49,6.24,6.24,0,0,0-3.25.88,10.15,10.15,0,0,0-2.7,2.37,15.73,15.73,0,0,0-2,3.3,32.47,32.47,0,0,0-1.55,3.75,24.34,24.34,0,0,0-.88,3.69A21.8,21.8,0,0,0,294.34,477.35Zm32.45,10.74c-1.14,0-2.35,0-3.64.11s-2.51.18-3.8.33-2.55.35-3.8.6a24.06,24.06,0,0,0-3.3.83q.33-2.47.77-5.51t1-6.28c.4-2.16.79-4.35,1.16-6.55s.81-4.32,1.21-6.34q1.38-7.21,2.92-14.7l9.64-1.27q-1.49,6.39-2.87,12.45-.6,2.58-1.21,5.4t-1.16,5.39c-.36,1.77-.69,3.47-1,5.13s-.53,3.12-.71,4.4c.92-.07,1.89-.11,2.92-.11s2-.05,2.81-.05c0,.7.09,1.39.16,2.09s.15,1.27.22,1.82a14.18,14.18,0,0,1,.22,1.49c.08.4.13.68.17.82h-.88A7.26,7.26,0,0,0,326.79,488.09Zm16.62,0c-1.14,0-2.35,0-3.63.11s-2.52.18-3.81.33-2.55.35-3.8.6a24.06,24.06,0,0,0-3.3.83q.33-2.47.77-5.51t1-6.28c.41-2.16.79-4.35,1.16-6.55s.81-4.32,1.21-6.34q1.38-7.21,2.92-14.7l9.64-1.27q-1.49,6.39-2.87,12.45-.6,2.58-1.21,5.4c-.4,1.83-.79,3.63-1.15,5.39s-.7,3.47-1,5.13-.53,3.12-.71,4.4c.92-.07,1.89-.11,2.92-.11s2-.05,2.81-.05c0,.7.09,1.39.16,2.09s.15,1.27.22,1.82a12,12,0,0,1,.22,1.49c.08.4.13.68.17.82h-.88A7.26,7.26,0,0,0,343.41,488.09Zm1.86,1.81,7.22-39.16,17.4-1.48a24.88,24.88,0,0,0-.66,2.47c-.18.7-.37,1.44-.55,2.21s-.28,1.39-.39,2c-.36,0-.9.07-1.59.11s-1.38,0-2.15.06h-4.41l-1.93,9.85c1.14-.07,2.21-.12,3.2-.16.81,0,1.63-.06,2.48-.06s1.47,0,1.87-.05c-.15,1-.29,2-.44,3s-.26,2-.44,3c-.37,0-1,.07-1.82.11s-1.63,0-2.48.05l-3.14.11-1.87,10.14,8-1.27-.55,6.28Zm48.3-21a29.75,29.75,0,0,1-2.21,9.81,25.08,25.08,0,0,1-4.4,6.94,17.11,17.11,0,0,1-5.51,4.18,13,13,0,0,1-5.57,1.38,8.75,8.75,0,0,1-7.1-3.52,14.33,14.33,0,0,1-2.09-4.52,22.92,22.92,0,0,1-.78-6.33,34.39,34.39,0,0,1,2-12.4,29.18,29.18,0,0,1,5.13-8.81,21.65,21.65,0,0,1,6.66-5.23,15.58,15.58,0,0,1,6.66-1.71,8.78,8.78,0,0,1,3.81.77,7.21,7.21,0,0,1,2.69,2.09,7.56,7.56,0,0,1,1.49,3,13,13,0,0,1,.5,3.64l-7.55,1.43a7.25,7.25,0,0,0-1.32-3.14,2.48,2.48,0,0,0-1.87-.94c-.92,0-1.93.67-3,2a21.82,21.82,0,0,0-3.09,5,42.3,42.3,0,0,0-2.42,6.77,31.64,31.64,0,0,0-1.1,7.28,9.17,9.17,0,0,0,1,4.9,3.17,3.17,0,0,0,2.64,1.43,5.18,5.18,0,0,0,2.26-.55,6.91,6.91,0,0,0,2.15-1.54,9.48,9.48,0,0,0,1.54-2.37,7.47,7.47,0,0,0,.72-3l-5.9.89,1-5.46,5.07-.66c1.39-.18,2.86-.4,4.4-.66S392.39,469.08,393.57,468.86Zm-2,21,7.21-39.16,17.41-1.48a24.88,24.88,0,0,0-.66,2.47c-.18.7-.37,1.44-.55,2.21s-.28,1.39-.39,2c-.36,0-.9.07-1.6.11s-1.37,0-2.14.06H406.4l-1.93,9.85c1.14-.07,2.21-.12,3.2-.16.81,0,1.63-.06,2.48-.06s1.46,0,1.87-.05c-.15,1-.3,2-.44,3s-.26,2-.44,3c-.37,0-1,.07-1.82.11s-1.63,0-2.48.05l-3.14.11-1.87,10.14,8-1.27-.55,6.28Zm64.72-18a41.53,41.53,0,0,1-4.5,8,32.08,32.08,0,0,1-5.18,5.67,19.43,19.43,0,0,1-5.42,3.34,14.43,14.43,0,0,1-5.34,1.09,9.87,9.87,0,0,1-4.76-1.17,11,11,0,0,1-3.67-3.51,20.22,20.22,0,0,1-2.59-5.76,31.17,31.17,0,0,1-.92-8A56.22,56.22,0,0,1,426,456.13a51,51,0,0,1,6.1-13.77,33.88,33.88,0,0,1,9.26-9.76,20.54,20.54,0,0,1,11.93-3.76,9.43,9.43,0,0,1,7,3.18,10.68,10.68,0,0,1,2.09,3.67,13.29,13.29,0,0,1,.83,4.84v1.08a7.09,7.09,0,0,1-.08,1.09l-10.93,2.92c-.67-1.39-1.45-2.09-2.34-2.09a4.16,4.16,0,0,0-2.84,1.59,20.61,20.61,0,0,0-2.83,4,50.44,50.44,0,0,0-2.76,5.51,61,61,0,0,0-2.33,6.09q-1,3.09-1.67,5.93a22.74,22.74,0,0,0-.59,4.51,7.53,7.53,0,0,0,.67,3.75,2.27,2.27,0,0,0,1.92,1.09,4.4,4.4,0,0,0,2.09-.67,11.28,11.28,0,0,0,2.17-1.84,18.33,18.33,0,0,0,1.83-2.58,10.17,10.17,0,0,0,1.17-2.84ZM486,460.05a35.63,35.63,0,0,1-1,8.54,36.68,36.68,0,0,1-2.54,7.32,30.48,30.48,0,0,1-8.15,10.41,19.91,19.91,0,0,1-4.68,2.81,12.16,12.16,0,0,1-4.52.94,8,8,0,0,1-3.3-.66,7.71,7.71,0,0,1-2.59-2,10.66,10.66,0,0,1-1.76-3.47,18.76,18.76,0,0,1-.61-5.12,29.78,29.78,0,0,1,.77-6.5,46,46,0,0,1,2.1-6.78,36.91,36.91,0,0,1,3.25-6.39,30.85,30.85,0,0,1,4.24-5.34,19.34,19.34,0,0,1,4.95-3.74,11.78,11.78,0,0,1,5.51-1.38,7.31,7.31,0,0,1,4.08,1.05,6.75,6.75,0,0,1,2.53,2.64,11,11,0,0,1,1.32,3.64A21.5,21.5,0,0,1,486,460.05Zm-20.93,17.3a3.89,3.89,0,0,0,.22,1.26,4.1,4.1,0,0,0,.6,1.16,4.4,4.4,0,0,0,.94.88,2.62,2.62,0,0,0,1.27.33,6.43,6.43,0,0,0,4.4-1.71,14,14,0,0,0,3.2-4.18,23.51,23.51,0,0,0,1.93-5.29,21.21,21.21,0,0,0,.71-5.12,9.22,9.22,0,0,0-.11-1.43,4.22,4.22,0,0,0-.33-1.44,2.29,2.29,0,0,0-.77-1.1,1.86,1.86,0,0,0-1.38-.49,6.27,6.27,0,0,0-3.25.88,10,10,0,0,0-2.69,2.37,15.35,15.35,0,0,0-2,3.3,32.42,32.42,0,0,0-1.54,3.75,23.25,23.25,0,0,0-.89,3.69A21.8,21.8,0,0,0,465.09,477.35Zm17.47,12.55q1.49-7.32,2.86-14.32.49-3,1.1-6.17c.41-2.16.77-4.29,1.11-6.38s.69-4.17,1-6.12.58-3.78.77-5.4a38,38,0,0,1,6.77-1.43,53.52,53.52,0,0,1,7.22-.49,10.54,10.54,0,0,1,3.52.49,4.86,4.86,0,0,1,2.21,1.43,4.91,4.91,0,0,1,1.15,2.1,10.19,10.19,0,0,1,.33,2.7,12.71,12.71,0,0,1-.77,4.35,18.34,18.34,0,0,1-2.09,4,20.67,20.67,0,0,1-3,3.47,16.08,16.08,0,0,1-3.58,2.53c.66,1.47,1.35,3.09,2.09,4.85s1.49,3.38,2.15,5c.73,1.83,1.48,3.67,2.25,5.5l-8.53,3q-1.11-3.53-2-6.61l-.77-2.59-.71-2.59c-.22-.81-.41-1.52-.55-2.15a13.53,13.53,0,0,1-.28-1.59l-.72.22c-.22,1.17-.49,2.55-.82,4.13s-.57,3.1-.83,4.57c-.33,1.72-.66,3.47-1,5.23ZM495.5,466a7.54,7.54,0,0,0,2.54-.88A18.66,18.66,0,0,0,501,463.3a17.17,17.17,0,0,0,2.37-2.26,3.35,3.35,0,0,0,1-2,1.14,1.14,0,0,0-.38-.93,2.2,2.2,0,0,0-1.1-.55,6,6,0,0,0-1.49-.28c-.55,0-1.12-.05-1.71-.05-.4,0-.82,0-1.26.05h-1.11Zm11.59,24.13q1.65-7.94,3.14-15.37c.36-2.13.75-4.34,1.15-6.61s.85-4.52,1.22-6.72.69-4.37,1-6.39.51-3.91.66-5.56c.48,0,.88,0,1.21,0h3l2.2-.11,2.37-.11q.77,3.85,1.38,7.44c.4,2.09.81,4.24,1.21,6.44s.83,4.08,1.16,5.62c.14-.74.31-1.58.49-2.53s.39-2,.61-3.09.42-2.13.6-3.19.44-2.19.66-3.25l1.6-7.38,6.72-.83q-1.87,8.43-3.3,16-.66,3.25-1.32,6.61c-.41,2.21-.79,4.34-1.16,6.39s-.68,3.91-.94,5.67-.46,3.18-.6,4.36a12.17,12.17,0,0,0-1.33.27l-2.58.55-2.92.66a17.56,17.56,0,0,0-2.15.61q-.33-4.41-.72-8.37c-.11-1.14-.24-2.3-.38-3.47s-.24-2.37-.39-3.47-.29-2.13-.44-3.09-.29-1.78-.44-2.48c-.11.7-.26,1.51-.44,2.43s-.37,1.89-.55,2.92-.37,2.11-.55,3.25-.39,2.16-.61,3.19q-.72,3.69-1.54,7.71Zm25.07-.23,7.21-39.16,17.41-1.48a24.88,24.88,0,0,0-.66,2.47c-.19.7-.37,1.44-.55,2.21s-.28,1.39-.39,2c-.37,0-.9.07-1.6.11s-1.37,0-2.14.06H547l-1.93,9.85c1.14-.07,2.2-.12,3.2-.16.8,0,1.63-.06,2.47-.06s1.47,0,1.88-.05c-.15,1-.3,2-.44,3s-.26,2-.44,3c-.37,0-1,.07-1.82.11s-1.64,0-2.48.05l-3.14.11-1.87,10.14,8-1.27-.55,6.28Zm18.55,0q1.49-7.32,2.86-14.32.49-3,1.11-6.17t1.1-6.38q.54-3.19,1-6.12t.77-5.4a38,38,0,0,1,6.77-1.43,53.52,53.52,0,0,1,7.22-.49,10.64,10.64,0,0,1,3.53.49,4.88,4.88,0,0,1,2.2,1.43,5,5,0,0,1,1.16,2.1,10.19,10.19,0,0,1,.33,2.7,12.73,12.73,0,0,1-.78,4.35,18.34,18.34,0,0,1-2.09,4,20.22,20.22,0,0,1-3,3.47,15.85,15.85,0,0,1-3.58,2.53q1,2.2,2.09,4.85c.77,1.72,1.49,3.38,2.15,5,.73,1.83,1.49,3.67,2.26,5.5l-8.54,3q-1.11-3.53-2-6.61c-.26-.85-.52-1.71-.78-2.59l-.71-2.59c-.22-.81-.41-1.52-.55-2.15a13.53,13.53,0,0,1-.28-1.59l-.71.22c-.22,1.17-.5,2.55-.83,4.13s-.57,3.1-.83,4.57c-.33,1.72-.66,3.47-1,5.23ZM563.65,466a7.47,7.47,0,0,0,2.54-.88,18.75,18.75,0,0,0,2.92-1.82,17.65,17.65,0,0,0,2.36-2.26,3.32,3.32,0,0,0,1-2,1.15,1.15,0,0,0-.39-.93,2.2,2.2,0,0,0-1.1-.55,6,6,0,0,0-1.49-.28c-.55,0-1.12-.05-1.71-.05-.4,0-.82,0-1.26.05h-1.1Z" transform="translate(0.5 0.5)"/><path class="cls-7" d="M285.5,471.91l.31.13.14-.31-.32-.13Zm-4.5,8-.27-.2h0Zm-5.18,5.67.22.26h0Zm-5.42,3.34-.12-.31Zm-10.1-.08-.16.29h0Zm-3.67-3.51-.28.19ZM254,479.58l-.32.09h0Zm1.25-23.45.32.1h0Zm6.09-13.77.29.18Zm9.27-9.76.19.27h0Zm15.77-2.92.14-.31Zm5.26,6-.32.11h0Zm.75,7,.09.32.21-.06,0-.22Zm-10.93,2.92-.3.14.12.25.26-.07Zm-5.18-.5-.24-.23h0Zm-2.83,4,.28.17h0Zm-2.76,5.51.31.14h0Zm-2.34,6.09.32.11Zm-1.66,5.93-.33-.08h0Zm.08,8.26-.29.18h0Zm4,.42.17.29h0Zm2.17-1.84.25.23h0Zm1.84-2.58.29.16Zm1.17-2.84.12-.31-.36-.15-.09.38Zm9.21,3.7a42,42,0,0,1-4.47,8l.54.4a42.56,42.56,0,0,0,4.54-8.08Zm-4.47,8a31.84,31.84,0,0,1-5.12,5.62l.43.51a32.44,32.44,0,0,0,5.23-5.74Zm-5.12,5.62a19.53,19.53,0,0,1-5.33,3.28l.24.62a20,20,0,0,0,5.52-3.39Zm-5.33,3.28a14.26,14.26,0,0,1-5.22,1.06v.67a14.79,14.79,0,0,0,5.46-1.11Zm-5.22,1.06a9.41,9.41,0,0,1-4.6-1.13l-.32.59a10.19,10.19,0,0,0,4.92,1.21Zm-4.6-1.12a10.69,10.69,0,0,1-3.56-3.4l-.55.37a11.27,11.27,0,0,0,3.79,3.61Zm-3.56-3.4a20.27,20.27,0,0,1-2.54-5.67l-.64.19a20.68,20.68,0,0,0,2.63,5.85Zm-2.54-5.66a31,31,0,0,1-.9-7.93h-.67a31.49,31.49,0,0,0,.93,8.1Zm-.9-7.93a55.82,55.82,0,0,1,2.15-15.34L255,456a56.44,56.44,0,0,0-2.18,15.53Zm2.15-15.35a50.47,50.47,0,0,1,6.06-13.68l-.57-.36A51.47,51.47,0,0,0,255,456Zm6.06-13.68a33.64,33.64,0,0,1,9.17-9.67l-.38-.55a34.45,34.45,0,0,0-9.36,9.86Zm9.17-9.67a20.2,20.2,0,0,1,11.74-3.69v-.67a20.84,20.84,0,0,0-12.12,3.81Zm11.74-3.69a8.93,8.93,0,0,1,3.7.8l.28-.61a9.6,9.6,0,0,0-4-.86Zm3.7.8a9.1,9.1,0,0,1,3.06,2.26l.5-.45a9.82,9.82,0,0,0-3.28-2.42Zm3.06,2.26a10.36,10.36,0,0,1,2,3.56l.63-.22a11,11,0,0,0-2.15-3.79Zm2,3.57a13,13,0,0,1,.81,4.72h.67a13.77,13.77,0,0,0-.86-5Zm.81,4.72Zm0,1.08a8,8,0,0,1-.08,1l.66.09a7.67,7.67,0,0,0,.09-1.13Zm.16.76-10.93,2.93.17.64L292.52,443Zm-10.54,3.1c-.68-1.41-1.55-2.27-2.64-2.27v.67c.69,0,1.38.53,2,1.89Zm-2.64-2.27a4.47,4.47,0,0,0-3.08,1.69l.49.46a3.82,3.82,0,0,1,2.59-1.48Zm-3.08,1.69A20.79,20.79,0,0,0,273.2,449l.58.33a19.41,19.41,0,0,1,2.79-3.94ZM273.2,449a49.45,49.45,0,0,0-2.77,5.55l.61.26a51.58,51.58,0,0,1,2.73-5.47Zm-2.77,5.55a60.69,60.69,0,0,0-2.35,6.12l.63.21a62,62,0,0,1,2.33-6.06Zm-2.35,6.12q-1,3.11-1.68,5.95l.65.16c.44-1.89,1-3.85,1.66-5.9Zm-1.68,6a23.07,23.07,0,0,0-.59,4.58h.67a22,22,0,0,1,.57-4.44Zm-.59,4.58a8,8,0,0,0,.71,3.93l.57-.35a7.41,7.41,0,0,1-.61-3.58Zm.72,3.94a2.6,2.6,0,0,0,2.2,1.23v-.67a1.92,1.92,0,0,1-1.65-.94Zm2.2,1.23a4.66,4.66,0,0,0,2.25-.71l-.33-.58a4,4,0,0,1-1.92.62Zm2.27-.72a12,12,0,0,0,2.23-1.89l-.49-.45a11,11,0,0,1-2.11,1.78Zm2.24-1.9a18.58,18.58,0,0,0,1.87-2.64l-.58-.33a17,17,0,0,1-1.8,2.54Zm1.87-2.64a10.42,10.42,0,0,0,1.2-2.93l-.65-.15a9.82,9.82,0,0,1-1.13,2.75Zm.75-2.69,9.52,3.84.25-.62-9.52-3.84Zm38.42.21-.33-.08h0Zm-2.54,7.32.3.15h0ZM308,481.86l-.26-.21h0Zm-4.41,4.46.21.27h0Zm-4.68,2.81.12.31h0Zm-7.82.28-.15.3h0Zm-2.59-2-.26.21h0Zm-1.76-3.47-.32.09h0Zm.16-11.62-.32-.07ZM289,465.5l-.31-.12Zm7.5-11.73.23.24h0Zm4.95-3.74-.15-.3Zm9.59-.33-.19.28h0Zm2.53,2.64-.29.16h0Zm1.32,3.64.33-.07h0Zm-20.32,22.63.31-.1Zm.6,1.16.27-.2Zm.94.88-.19.27v0h0Zm5.67-1.38.23.25Zm3.2-4.18.3.15Zm1.93-5.29-.33-.08h0Zm.6-6.55-.33,0h0Zm-.33-1.44-.32.11h0Zm-.77-1.1-.24.24h0Zm-4.63.39.17.28Zm-2.7,2.37-.25-.21h0Zm-2,3.3.3.15h0Zm-1.55,3.75-.31-.11h0Zm-.88,3.69-.33,0Zm20.32-14.16a34.91,34.91,0,0,1-1,8.46l.65.16a35.79,35.79,0,0,0,1-8.62Zm-1,8.46a35.86,35.86,0,0,1-2.51,7.26l.6.29a37,37,0,0,0,2.56-7.39Zm-2.51,7.26a29.94,29.94,0,0,1-3.7,5.88l.52.42a30.32,30.32,0,0,0,3.78-6Zm-3.7,5.88a30,30,0,0,1-4.36,4.42l.42.51a30.25,30.25,0,0,0,4.46-4.51Zm-4.35,4.41a20.08,20.08,0,0,1-4.61,2.77l.26.61a20.69,20.69,0,0,0,4.76-2.85Zm-4.6,2.76a12,12,0,0,1-4.4.92v.66a12.56,12.56,0,0,0,4.64-1Zm-4.4.92a7.74,7.74,0,0,1-3.17-.64l-.27.61a8.26,8.26,0,0,0,3.44.69Zm-3.16-.63a7.47,7.47,0,0,1-2.47-1.95l-.52.42a8.12,8.12,0,0,0,2.7,2.13Zm-2.47-1.95a10.48,10.48,0,0,1-1.71-3.36l-.63.2a10.86,10.86,0,0,0,1.82,3.58Zm-1.7-3.35a18.39,18.39,0,0,1-.6-5h-.66a19.13,19.13,0,0,0,.62,5.21Zm-.6-5a29.24,29.24,0,0,1,.77-6.43l-.65-.14a29.68,29.68,0,0,0-.78,6.57Zm.77-6.43a45.22,45.22,0,0,1,2.08-6.72l-.63-.25a46.64,46.64,0,0,0-2.1,6.83Zm2.08-6.72a36.68,36.68,0,0,1,3.22-6.34l-.57-.35a37.87,37.87,0,0,0-3.28,6.44Zm3.22-6.34a30.72,30.72,0,0,1,4.19-5.28l-.47-.47a31.65,31.65,0,0,0-4.29,5.4Zm4.19-5.28a19.39,19.39,0,0,1,4.88-3.69l-.31-.59a19.94,19.94,0,0,0-5,3.81Zm4.88-3.69A11.47,11.47,0,0,1,307,449v-.66a12.14,12.14,0,0,0-5.66,1.41ZM307,449a6.88,6.88,0,0,1,3.89,1l.37-.56a7.56,7.56,0,0,0-4.26-1.1Zm3.91,1a6.41,6.41,0,0,1,2.41,2.52l.59-.32a7.15,7.15,0,0,0-2.66-2.77Zm2.41,2.53a10.74,10.74,0,0,1,1.28,3.53l.66-.13a11.65,11.65,0,0,0-1.36-3.74Zm1.28,3.53a20.94,20.94,0,0,1,.38,4h.67a22.32,22.32,0,0,0-.39-4.14ZM294,477.35a4.26,4.26,0,0,0,.24,1.37l.63-.21a3.88,3.88,0,0,1-.2-1.16Zm.24,1.37a4.26,4.26,0,0,0,.66,1.25l.53-.4a3.68,3.68,0,0,1-.56-1.06Zm.66,1.25a4.57,4.57,0,0,0,1,.95l.38-.54a3.93,3.93,0,0,1-.86-.81Zm1,1a2.92,2.92,0,0,0,1.43.38v-.67a2.33,2.33,0,0,1-1.11-.29Zm1.43.38a6.83,6.83,0,0,0,4.63-1.8l-.45-.5a6.1,6.1,0,0,1-4.18,1.63Zm4.63-1.8a14.52,14.52,0,0,0,3.27-4.28l-.6-.3a13.78,13.78,0,0,1-3.12,4.08Zm3.27-4.28a24.3,24.3,0,0,0,2-5.36l-.65-.16a22.88,22.88,0,0,1-1.9,5.22Zm2-5.36a21.35,21.35,0,0,0,.73-5.2h-.67a20.67,20.67,0,0,1-.71,5Zm.73-5.2a9.92,9.92,0,0,0-.12-1.48l-.66.09a10.2,10.2,0,0,1,.11,1.39Zm-.11-1.46a4.83,4.83,0,0,0-.36-1.53l-.62.25a4.39,4.39,0,0,1,.31,1.33Zm-.35-1.51a2.66,2.66,0,0,0-.88-1.26l-.42.52a2,2,0,0,1,.66.95Zm-.85-1.23a2.2,2.2,0,0,0-1.62-.6v.67a1.52,1.52,0,0,1,1.14.4Zm-1.62-.6a6.61,6.61,0,0,0-3.42.93l.34.57a6,6,0,0,1,3.08-.83Zm-3.42.93a10.48,10.48,0,0,0-2.78,2.45l.51.42a10,10,0,0,1,2.61-2.3Zm-2.78,2.45a16.45,16.45,0,0,0-2.09,3.37l.61.28a16.2,16.2,0,0,1,2-3.23Zm-2.08,3.37a31.27,31.27,0,0,0-1.56,3.78l.63.21a34.26,34.26,0,0,1,1.53-3.7Zm-1.56,3.78a24.26,24.26,0,0,0-.9,3.75l.66.1a22.59,22.59,0,0,1,.87-3.64Zm-.9,3.75a22.36,22.36,0,0,0-.28,3.19h.67a21.29,21.29,0,0,1,.27-3.09Zm28.87,14,0-.34h0Zm-3.8.33,0,.33Zm-3.8.6.06.33h0Zm-3.3.83-.33,0-.07.53.5-.17Zm.77-5.51-.33-.05Zm1-6.28-.33-.06h0Zm1.16-6.55-.33-.06h0Zm1.21-6.34.33.07h0Zm2.92-14.7-.05-.33-.23,0,0,.23Zm9.64-1.27.32.08.11-.47-.48.06Zm-2.87,12.45.33.07h0Zm-1.21,5.4.33.07h0Zm-1.16,5.39.33.07Zm-1,5.13-.33-.06Zm-.71,4.4-.33,0-.06.41.41,0Zm2.92-.11v.34h0Zm2.81-.05.33,0,0-.32h-.31Zm.16,2.09-.33,0h0Zm.22,1.82-.33,0h0Zm.22,1.49-.33,0v0Zm.17.82v.34h.42l-.1-.42Zm-.88,0-.05.33h.05Zm-.83-.39c-1.15,0-2.36,0-3.66.11l0,.67c1.28-.07,2.49-.11,3.62-.11Zm-3.66.11c-1.25.08-2.52.19-3.81.34l.07.66q1.92-.23,3.78-.33Zm-3.81.34c-1.3.14-2.58.35-3.83.61l.13.65c1.24-.25,2.5-.45,3.77-.6Zm-3.83.61a25.24,25.24,0,0,0-3.35.83l.21.64a23.48,23.48,0,0,1,3.26-.82ZM312.58,490q.33-2.47.77-5.5l-.66-.1q-.44,3-.77,5.52Zm.77-5.5q.43-3,1-6.27l-.66-.11q-.56,3.25-1,6.28Zm1-6.27q.6-3.24,1.16-6.56l-.66-.11c-.37,2.2-.75,4.39-1.16,6.55Zm1.16-6.55q.6-3.3,1.21-6.33l-.66-.13c-.4,2-.81,4.13-1.21,6.34Zm1.21-6.33q1.37-7.22,2.92-14.71l-.66-.13q-1.55,7.5-2.92,14.71Zm2.63-14.44,9.64-1.27-.09-.66-9.64,1.27Zm9.27-1.68q-1.49,6.39-2.86,12.45l.65.15q1.38-6.06,2.86-12.44Zm-2.86,12.45q-.62,2.6-1.21,5.41l.65.14q.6-2.81,1.21-5.4Zm-1.21,5.4c-.41,1.84-.79,3.64-1.16,5.41l.65.13c.37-1.76.75-3.56,1.16-5.39Zm-1.16,5.41q-.56,2.64-1,5.13l.66.12c.3-1.65.62-3.36,1-5.12Zm-1,5.13c-.29,1.65-.53,3.13-.71,4.42l.66.09c.18-1.28.42-2.74.71-4.39Zm-.36,4.8c.91-.08,1.88-.11,2.9-.11v-.67c-1,0-2,0-2.95.11Zm2.91-.11c1.06,0,2-.06,2.8-.06v-.67c-.82,0-1.76,0-2.83.06Zm2.46-.37c0,.7.09,1.4.17,2.11l.66-.07c-.07-.7-.12-1.39-.16-2.08Zm.17,2.11c.07.66.15,1.27.22,1.82l.66-.09c-.07-.54-.14-1.15-.22-1.81Zm.22,1.84a14.36,14.36,0,0,1,.22,1.45l.66,0a12.24,12.24,0,0,0-.22-1.53Zm.22,1.49c.08.4.13.68.17.84l.65-.16c0-.13-.09-.4-.16-.8Zm.5.43h-.88v.67h.88Zm-.84,0a5.94,5.94,0,0,0-.87-.06v.67a6.26,6.26,0,0,1,.78.05Zm12.12.39,0-.34h0Zm-3.81.33,0,.33Zm-3.8.6.06.33h0Zm-3.3.83-.33,0-.07.53.5-.17Zm.77-5.51-.33-.05Zm1-6.28-.33-.06h0Zm1.16-6.55-.33-.06h0Zm1.21-6.34.33.07h0Zm2.92-14.7,0-.33-.24,0-.05.23Zm9.64-1.27.32.08.11-.47-.48.06Zm-2.87,12.45.33.07h0Zm-1.21,5.4.33.07h0Zm-1.15,5.39.32.07Zm-1,5.13-.32-.06Zm-.71,4.4-.33,0-.06.41.41,0Zm2.92-.11v.34h0Zm2.81-.05.33,0,0-.32h-.31Zm.16,2.09-.33,0h0Zm.22,1.82-.33,0h0Zm.22,1.49-.33,0v0Zm.17.82v.34h.43l-.11-.42Zm-.88,0-.05.33h.05Zm-.83-.39c-1.15,0-2.36,0-3.65.11l0,.67c1.28-.07,2.49-.11,3.62-.11Zm-3.65.11c-1.26.08-2.53.19-3.82.34l.07.66q1.92-.23,3.78-.33Zm-3.82.34c-1.3.14-2.58.35-3.83.61l.13.65c1.24-.25,2.5-.45,3.77-.6Zm-3.83.61a25.24,25.24,0,0,0-3.35.83l.21.64a23.48,23.48,0,0,1,3.26-.82ZM329.2,490q.33-2.47.77-5.5l-.66-.1q-.44,3-.77,5.52Zm.77-5.5q.43-3,1-6.27l-.66-.11q-.56,3.25-1,6.28Zm1-6.27q.6-3.24,1.16-6.56l-.66-.11c-.37,2.2-.75,4.39-1.16,6.55Zm1.16-6.55q.6-3.3,1.21-6.33l-.66-.13c-.4,2-.81,4.13-1.21,6.34Zm1.21-6.33q1.38-7.22,2.92-14.71l-.66-.13q-1.54,7.5-2.92,14.71ZM336,450.91l9.64-1.27-.09-.66-9.63,1.27Zm9.27-1.68q-1.49,6.39-2.86,12.45l.65.15q1.38-6.06,2.86-12.44Zm-2.86,12.45q-.62,2.6-1.21,5.41l.65.14c.4-1.87.81-3.67,1.21-5.4Zm-1.21,5.4c-.41,1.84-.79,3.64-1.16,5.41l.65.13c.37-1.76.75-3.56,1.16-5.39ZM340,472.49q-.56,2.64-1,5.13l.65.12q.45-2.48,1-5.12Zm-1,5.13c-.3,1.65-.54,3.13-.72,4.42l.66.09c.18-1.28.42-2.74.71-4.39Zm-.37,4.8c.91-.08,1.88-.11,2.9-.11v-.67c-1,0-2,0-3,.11Zm2.91-.11c1.06,0,2-.06,2.8-.06v-.67q-1.23,0-2.82.06Zm2.46-.37c0,.7.1,1.4.17,2.11l.66-.07c-.07-.7-.12-1.39-.16-2.08Zm.17,2.11c.07.66.15,1.27.22,1.82l.66-.09c-.07-.54-.14-1.15-.22-1.81Zm.22,1.84a14.36,14.36,0,0,1,.22,1.45l.67,0a14.65,14.65,0,0,0-.23-1.53Zm.22,1.49c.08.4.13.68.17.84l.65-.16c0-.13-.09-.4-.16-.8Zm.5.43h-.88v.67h.88Zm-.84,0a5.94,5.94,0,0,0-.87-.06v.67a6.26,6.26,0,0,1,.78.05Zm1,2.09-.33-.06-.08.47.46-.08Zm7.22-39.16,0-.33-.26,0,0,.25Zm17.4-1.48.32.1.15-.48-.5,0Zm-.66,2.47.32.09h0Zm-.55,2.21-.33-.08h0Zm-.39,2,0,.33.25,0,0-.25Zm-1.59.11v.33h0Zm-2.15.06v.33h0Zm-4.41,0v-.34h-.27l-.06.27Zm-1.93,9.85-.32-.06-.09.43.44,0Zm3.2-.16v.33h0Zm4.35-.11.33.05.06-.42-.42,0Zm-.44,3-.33-.05h0Zm-.44,3,0,.33.25,0,0-.25Zm-1.82.11v.33h0Zm-2.48.05v.34h0Zm-3.14.11v-.33h-.27l-.05.26Zm-1.87,10.14-.33-.06-.08.46.46-.07Zm8-1.27.33,0,0-.42-.42.06Zm-.55,6.28.05.33.26,0,0-.26ZM345.6,490l7.21-39.17-.65-.12-7.22,39.16Zm6.91-38.89,17.41-1.49-.06-.67-17.4,1.49Zm17.06-1.93c-.26.82-.48,1.66-.67,2.51l.66.14a24.28,24.28,0,0,1,.65-2.44Zm-.66,2.5c-.19.7-.37,1.44-.56,2.21l.65.15c.19-.76.37-1.5.55-2.19Zm-.56,2.22c-.15.74-.27,1.4-.38,2l.65.12q.17-.87.39-2Zm-.09,1.72-1.58.11,0,.66c.7,0,1.24-.07,1.62-.11Zm-1.56.11c-.67,0-1.39,0-2.17.05l0,.67c.77,0,1.48-.06,2.14-.06Zm-2.15.05h-2.37v.67h2.37Zm-2.37,0h-2v.67h2Zm-2.37.27-1.92,9.86.65.13,1.93-9.86Zm-1.57,10.26c1.13-.08,2.19-.13,3.18-.17l0-.66c-1,0-2.07.09-3.21.16Zm3.18-.17c.81,0,1.63-.05,2.47-.05v-.67c-.85,0-1.68,0-2.5.06Zm2.47-.05c.84,0,1.48,0,1.9-.06l-.06-.66c-.39,0-1,.05-1.84.05Zm1.54-.44c-.15,1-.29,2-.44,3l.66.1c.15-1,.29-2,.44-3Zm-.44,3c-.11,1-.26,2-.44,3l.66.12c.18-1,.33-2.06.44-3.05Zm-.14,2.74c-.36,0-1,.07-1.8.1l0,.67c.84,0,1.45-.07,1.83-.11Zm-1.79.1q-1.21,0-2.49.06l0,.67q1.26-.06,2.46-.06Zm-2.49.06-3.14.11,0,.67,3.14-.11Zm-3.46.38-1.87,10.14.66.12,1.87-10.14Zm-1.49,10.53,8-1.27-.1-.66-8,1.27Zm7.66-1.63-.55,6.28.66.06.55-6.28Zm-.27,6-17.79,2.76.1.65,17.79-2.75Zm30.56-18,.33,0,0-.43-.43.08Zm-2.21,9.81.31.13h0Zm-4.4,6.94-.25-.23h0Zm-5.51,4.18-.14-.3h0Zm-9.48.5-.14.3h0Zm-3.19-2.64-.27.19h0Zm-2.09-4.52L367,483ZM368,464.4l.31.12Zm5.13-8.81-.25-.22h0Zm6.66-5.23-.14-.3h0Zm10.47-.94-.15.3h0Zm2.69,2.09-.26.21h0Zm1.49,3-.32.08h0Zm.5,3.64.06.33.27-.06v-.27Zm-7.55,1.43-.32.07.07.32.31-.06ZM386,456.47l-.25.22Zm-4.9,1,.25.21h0Zm-3.09,5,.31.14Zm-3.52,14.05-.34,0h.34Zm1,4.9-.28.18h0Zm4.9.88-.14-.3h0Zm2.15-1.54.24.23h0Zm1.54-2.37-.3-.15h0Zm.72-3,.33,0,0-.41-.4.06Zm-5.9.89-.32-.07-.09.46.46-.06Zm1-5.46,0-.33-.24,0-.05.24Zm5.07-.66,0-.33h0Zm4.4-.66-.05-.33h0Zm3.8-.74a29.29,29.29,0,0,1-2.17,9.7l.61.26a30,30,0,0,0,2.23-9.91Zm-2.17,9.69a24.53,24.53,0,0,1-4.35,6.85l.49.45a25.29,25.29,0,0,0,4.47-7Zm-4.35,6.85a16.81,16.81,0,0,1-5.4,4.11l.28.61a17.46,17.46,0,0,0,5.61-4.27Zm-5.4,4.11a12.8,12.8,0,0,1-5.43,1.35v.67a13.43,13.43,0,0,0,5.71-1.41Zm-5.43,1.35a8.68,8.68,0,0,1-3.76-.85l-.29.6a9.4,9.4,0,0,0,4.05.92Zm-3.76-.85a8.72,8.72,0,0,1-3.08-2.55l-.52.41a9.36,9.36,0,0,0,3.31,2.74Zm-3.07-2.54a13.87,13.87,0,0,1-2-4.41l-.65.18a14.76,14.76,0,0,0,2.15,4.62ZM367,483a22.57,22.57,0,0,1-.76-6.24h-.67a23.66,23.66,0,0,0,.78,6.42Zm-.76-6.24a34.1,34.1,0,0,1,2-12.28l-.62-.24a34.66,34.66,0,0,0-2.06,12.52Zm2-12.28a28.81,28.81,0,0,1,5.07-8.71l-.51-.44a29.62,29.62,0,0,0-5.18,8.91Zm5.06-8.71a21.26,21.26,0,0,1,6.57-5.15l-.3-.6a21.92,21.92,0,0,0-6.76,5.31Zm6.56-5.15A15.34,15.34,0,0,1,386.4,449v-.66a15.82,15.82,0,0,0-6.8,1.74ZM386.4,449a8.29,8.29,0,0,1,3.66.74l.29-.6a9,9,0,0,0-4-.8Zm3.66.74a7,7,0,0,1,2.58,2l.53-.41a7.67,7.67,0,0,0-2.82-2.19Zm2.59,2a7.32,7.32,0,0,1,1.42,2.89l.65-.16a8,8,0,0,0-1.56-3.16Zm1.42,2.91a12.62,12.62,0,0,1,.48,3.54h.67a13.29,13.29,0,0,0-.51-3.73Zm.76,3.21-7.55,1.43.12.66,7.55-1.43Zm-7.16,1.69a7.56,7.56,0,0,0-1.4-3.29l-.5.44a7,7,0,0,1,1.25,3Zm-1.4-3.29a2.78,2.78,0,0,0-2.12-1.05v.67a2.11,2.11,0,0,1,1.62.82Zm-2.12-1.05c-1.08,0-2.18.77-3.29,2.1l.51.43c1.09-1.31,2-1.86,2.78-1.86Zm-3.29,2.1a22,22,0,0,0-3.13,5.09l.61.28a21.21,21.21,0,0,1,3-4.94Zm-3.13,5.09a41.75,41.75,0,0,0-2.44,6.83l.64.17a41.68,41.68,0,0,1,2.41-6.72Zm-2.44,6.83a32.19,32.19,0,0,0-1.12,7.34l.67,0a31.58,31.58,0,0,1,1.09-7.2Zm-1.12,7.36a9.39,9.39,0,0,0,1.05,5.08l.56-.37a8.75,8.75,0,0,1-.94-4.71Zm1.06,5.09a3.49,3.49,0,0,0,2.91,1.57v-.66a2.83,2.83,0,0,1-2.37-1.3Zm2.91,1.57a5.46,5.46,0,0,0,2.4-.58l-.28-.6a4.93,4.93,0,0,1-2.12.52Zm2.4-.58a7,7,0,0,0,2.25-1.61l-.48-.46a6.56,6.56,0,0,1-2.05,1.47ZM382.8,481a9.39,9.39,0,0,0,1.59-2.45l-.6-.28a9.07,9.07,0,0,1-1.49,2.28Zm1.59-2.45a7.77,7.77,0,0,0,.75-3.1l-.67,0a6.94,6.94,0,0,1-.68,2.84Zm.37-3.45-5.9.88.1.67,5.9-.89Zm-5.52,1.28,1.05-5.46-.66-.12-1,5.45Zm.76-5.19,5.07-.66-.09-.66-5.06.66Zm5.07-.66c1.4-.18,2.87-.4,4.42-.66l-.11-.66c-1.54.26-3,.48-4.4.66Zm4.42-.66q2.37-.39,4.14-.72l-.13-.65c-1.17.22-2.54.45-4.12.71Zm2,20-.33-.06-.08.47.46-.08Zm7.21-39.16,0-.33-.26,0,0,.25Zm17.41-1.48.32.1.15-.48-.5,0Zm-.66,2.47.32.09h0Zm-.55,2.21-.33-.08h0Zm-.39,2,0,.33.24,0,.05-.25ZM413,456v.33h0Zm-2.14.06v.33h0Zm-4.41,0v-.34h-.27l-.06.27Zm-1.93,9.85-.33-.06-.08.43.43,0Zm3.2-.16v.33h0Zm4.35-.11.33.05.06-.42-.42,0Zm-.44,3-.33-.05h0Zm-.44,3,0,.33.25,0,.05-.25Zm-1.82.11v.33h0Zm-2.48.05v.34h0Zm-3.14.11v-.33h-.27l-.05.26Zm-1.87,10.14-.33-.06-.09.46.47-.07Zm8-1.27.33,0,0-.42-.42.06Zm-.55,6.28.05.33.26,0,0-.26ZM391.86,490l7.21-39.17-.65-.12-7.22,39.16Zm6.91-38.89,17.41-1.49-.06-.67-17.4,1.49Zm17.06-1.93c-.26.82-.48,1.66-.67,2.51l.65.14c.19-.83.4-1.65.66-2.44Zm-.66,2.5c-.19.7-.37,1.44-.56,2.21l.65.15c.19-.76.37-1.5.55-2.19Zm-.56,2.22c-.15.74-.28,1.4-.39,2l.66.12q.17-.87.39-2Zm-.09,1.72-1.58.11,0,.66c.7,0,1.24-.07,1.62-.11Zm-1.57.11c-.66,0-1.38,0-2.16.05l0,.67q1.15-.06,2.13-.06Zm-2.14.05h-2.37v.67h2.37Zm-2.37,0h-2v.67h2Zm-2.37.27-1.93,9.86.66.13,1.93-9.86Zm-1.58,10.26c1.14-.08,2.2-.13,3.19-.17l0-.66c-1,0-2.06.09-3.2.16Zm3.19-.17c.8,0,1.63-.05,2.47-.05v-.67c-.85,0-1.68,0-2.5.06Zm2.47-.05c.84,0,1.48,0,1.9-.06l-.06-.66c-.39,0-1,.05-1.84.05Zm1.54-.44c-.15,1-.3,2-.44,3l.66.1c.14-1,.29-2,.44-3Zm-.44,3c-.11,1-.26,2-.44,3l.66.12c.18-1,.33-2.06.44-3.05Zm-.15,2.74c-.35,0-1,.07-1.8.1l0,.67c.85,0,1.46-.07,1.84-.11Zm-1.78.1q-1.21,0-2.49.06l0,.67q1.26-.06,2.46-.06Zm-2.49.06-3.14.11,0,.67,3.14-.11Zm-3.46.38-1.87,10.14.66.12L404,472.06Zm-1.49,10.53,8-1.27-.1-.66-8,1.27Zm7.66-1.63-.55,6.28.66.06.55-6.28Zm-.27,6-17.79,2.76.1.65,17.79-2.75Zm47-14.91.31.13.14-.31-.32-.13Zm-4.5,8-.27-.2h0Zm-5.18,5.67.22.26h0Zm-5.42,3.34-.12-.31Zm-10.1-.08-.16.29h0Zm-3.67-3.51-.28.19Zm-2.59-5.76-.32.09h0ZM426,456.13l.32.1h0Zm6.1-13.77.28.18Zm9.26-9.76.19.27h0Zm15.77-2.92.14-.31Zm5.26,6-.32.11h0Zm.75,7,.09.32.21-.06,0-.22Zm-10.93,2.92-.3.14.12.25.26-.07Zm-5.18-.5-.24-.23h0Zm-2.83,4,.28.17h0Zm-2.76,5.51.31.14h0Zm-2.33,6.09.31.11Zm-1.67,5.93-.33-.08h0Zm.08,8.26-.28.18h0Zm4,.42.16.29h0Zm2.17-1.84.24.23h0Zm1.83-2.58.29.16Zm1.17-2.84.12-.31-.36-.15-.09.38Zm9.21,3.7a42,42,0,0,1-4.47,8l.54.4a42.56,42.56,0,0,0,4.54-8.08Zm-4.47,8a31.84,31.84,0,0,1-5.12,5.62l.43.51a32.44,32.44,0,0,0,5.23-5.74Zm-5.12,5.62a19.53,19.53,0,0,1-5.33,3.28l.24.62a19.9,19.9,0,0,0,5.52-3.39ZM441,488.62a14.26,14.26,0,0,1-5.22,1.06v.67a14.79,14.79,0,0,0,5.46-1.11Zm-5.22,1.06a9.41,9.41,0,0,1-4.6-1.13l-.32.59a10.19,10.19,0,0,0,4.92,1.21Zm-4.6-1.12a10.79,10.79,0,0,1-3.56-3.4l-.55.37a11.27,11.27,0,0,0,3.79,3.61Zm-3.56-3.4a20.27,20.27,0,0,1-2.54-5.67l-.64.19a21,21,0,0,0,2.63,5.85Zm-2.54-5.66a31,31,0,0,1-.9-7.93h-.67a31.49,31.49,0,0,0,.93,8.1Zm-.9-7.93a55.82,55.82,0,0,1,2.15-15.34l-.64-.19a56.44,56.44,0,0,0-2.18,15.53Zm2.15-15.35a50.47,50.47,0,0,1,6.06-13.68l-.57-.36A51.47,51.47,0,0,0,425.72,456Zm6.06-13.68a33.64,33.64,0,0,1,9.17-9.67l-.38-.55a34.45,34.45,0,0,0-9.36,9.86Zm9.17-9.67a20.2,20.2,0,0,1,11.74-3.69v-.67a20.84,20.84,0,0,0-12.12,3.81Zm11.74-3.69a8.93,8.93,0,0,1,3.7.8l.28-.61a9.6,9.6,0,0,0-4-.86Zm3.7.8a9,9,0,0,1,3.06,2.26l.5-.45a9.82,9.82,0,0,0-3.28-2.42Zm3.06,2.26a10.2,10.2,0,0,1,2,3.56l.64-.22a11.15,11.15,0,0,0-2.16-3.79Zm2,3.57a13,13,0,0,1,.81,4.72h.67a13.77,13.77,0,0,0-.86-5Zm.81,4.72Zm0,1.08a8,8,0,0,1-.08,1l.66.09a7.67,7.67,0,0,0,.09-1.13Zm.16.76-10.93,2.93.17.64L463.27,443Zm-10.54,3.1c-.68-1.41-1.54-2.27-2.64-2.27v.67c.69,0,1.38.53,2,1.89Zm-2.64-2.27a4.49,4.49,0,0,0-3.08,1.69l.49.46a3.82,3.82,0,0,1,2.59-1.48Zm-3.08,1.69A20.79,20.79,0,0,0,444,449l.58.33a19.41,19.41,0,0,1,2.79-3.94ZM444,449a49.45,49.45,0,0,0-2.77,5.55l.61.26a51.58,51.58,0,0,1,2.73-5.47Zm-2.77,5.55a60.69,60.69,0,0,0-2.35,6.12l.63.21a62,62,0,0,1,2.33-6.06Zm-2.35,6.12q-1,3.11-1.68,5.95l.65.16c.44-1.89,1-3.85,1.66-5.9Zm-1.68,6a23.07,23.07,0,0,0-.59,4.58h.67a22.73,22.73,0,0,1,.57-4.44Zm-.59,4.58a7.9,7.9,0,0,0,.72,3.93l.56-.35a7.41,7.41,0,0,1-.61-3.58Zm.73,3.94a2.58,2.58,0,0,0,2.19,1.23v-.67a1.93,1.93,0,0,1-1.65-.94Zm2.19,1.23a4.66,4.66,0,0,0,2.25-.71l-.33-.58a4,4,0,0,1-1.92.62Zm2.27-.72a11.65,11.65,0,0,0,2.23-1.89l-.49-.45a11.27,11.27,0,0,1-2.1,1.78Zm2.24-1.9a18.58,18.58,0,0,0,1.87-2.64l-.58-.33a17,17,0,0,1-1.8,2.54Zm1.87-2.64a10.42,10.42,0,0,0,1.2-2.93l-.65-.15a9.53,9.53,0,0,1-1.13,2.75Zm.76-2.69,9.51,3.84.25-.62-9.52-3.84Zm38.41.21-.33-.08h0Zm-2.54,7.32.3.15h0Zm-3.74,5.95-.26-.21h0Zm-4.41,4.46.21.27h0Zm-4.68,2.81.12.31h0Zm-7.82.28-.15.3h0Zm-2.59-2-.26.21h0Zm-1.76-3.47-.32.09h0Zm.16-11.62-.32-.07Zm2.1-6.78-.31-.12Zm7.49-11.73.23.24h0Zm4.95-3.74-.15-.3Zm9.59-.33-.19.28h0Zm2.53,2.64-.29.16h0Zm1.32,3.64.33-.07h0Zm-20.32,22.63.32-.1Zm.6,1.16.27-.2Zm.94.88-.19.27,0,0h0Zm5.67-1.38.23.25Zm3.2-4.18.3.15Zm1.93-5.29-.33-.08h0Zm.6-6.55-.33,0h0Zm-.33-1.44-.31.11h0Zm-.77-1.1-.23.24h0Zm-4.63.39.17.28Zm-2.69,2.37-.26-.21h0Zm-2,3.3.3.15h0Zm-1.54,3.75-.32-.11h0Zm-.89,3.69-.33,0Zm20.33-14.16a34.91,34.91,0,0,1-1,8.46l.65.16a35.79,35.79,0,0,0,1-8.62Zm-1,8.46a35.86,35.86,0,0,1-2.51,7.26l.61.29a37.59,37.59,0,0,0,2.55-7.39Zm-2.51,7.26a29.94,29.94,0,0,1-3.7,5.88l.52.42a30.32,30.32,0,0,0,3.78-6Zm-3.7,5.88a30,30,0,0,1-4.36,4.42l.42.51a30.25,30.25,0,0,0,4.46-4.51Zm-4.35,4.41a20.08,20.08,0,0,1-4.61,2.77l.26.61a20.69,20.69,0,0,0,4.76-2.85Zm-4.6,2.76a12,12,0,0,1-4.4.92v.66a12.56,12.56,0,0,0,4.64-1Zm-4.4.92a7.74,7.74,0,0,1-3.17-.64l-.27.61a8.26,8.26,0,0,0,3.44.69Zm-3.16-.63a7.47,7.47,0,0,1-2.47-1.95l-.52.42a8.12,8.12,0,0,0,2.7,2.13Zm-2.47-1.95a10.27,10.27,0,0,1-1.7-3.36l-.64.2a10.86,10.86,0,0,0,1.82,3.58Zm-1.7-3.35a18.82,18.82,0,0,1-.59-5h-.67a19.13,19.13,0,0,0,.62,5.21Zm-.59-5a29.2,29.2,0,0,1,.76-6.43l-.65-.14a29.68,29.68,0,0,0-.78,6.57Zm.76-6.43a45.22,45.22,0,0,1,2.08-6.72l-.62-.25a45.51,45.51,0,0,0-2.11,6.83Zm2.08-6.72a36.68,36.68,0,0,1,3.22-6.34l-.57-.35a37.11,37.11,0,0,0-3.27,6.44Zm3.22-6.34a30.72,30.72,0,0,1,4.19-5.28l-.47-.47a31.65,31.65,0,0,0-4.29,5.4Zm4.2-5.28a19.17,19.17,0,0,1,4.87-3.69l-.31-.59a19.94,19.94,0,0,0-5,3.81Zm4.87-3.69A11.5,11.5,0,0,1,477.7,449v-.66a12.14,12.14,0,0,0-5.66,1.41ZM477.7,449a6.88,6.88,0,0,1,3.89,1l.37-.56a7.56,7.56,0,0,0-4.26-1.1Zm3.91,1A6.41,6.41,0,0,1,484,452.5l.59-.32a7.15,7.15,0,0,0-2.66-2.77Zm2.41,2.53a11,11,0,0,1,1.29,3.53l.65-.13a11.42,11.42,0,0,0-1.36-3.74Zm1.29,3.53a21.78,21.78,0,0,1,.38,4h.66a22.32,22.32,0,0,0-.39-4.14Zm-20.56,21.31a4.55,4.55,0,0,0,.24,1.37l.64-.21a3.61,3.61,0,0,1-.21-1.16Zm.24,1.37a4.26,4.26,0,0,0,.66,1.25l.53-.4a3.43,3.43,0,0,1-.55-1.06Zm.66,1.25a4.57,4.57,0,0,0,1,.95l.38-.54a3.93,3.93,0,0,1-.86-.81Zm1,1a2.92,2.92,0,0,0,1.43.38v-.67a2.36,2.36,0,0,1-1.11-.29Zm1.43.38a6.81,6.81,0,0,0,4.63-1.8l-.45-.5a6.09,6.09,0,0,1-4.18,1.63Zm4.63-1.8a14.52,14.52,0,0,0,3.27-4.28l-.6-.3A13.78,13.78,0,0,1,472.3,479Zm3.27-4.28a23.81,23.81,0,0,0,2-5.36l-.65-.16a22.88,22.88,0,0,1-1.9,5.22Zm2-5.36a21.35,21.35,0,0,0,.73-5.2H478a20.19,20.19,0,0,1-.71,5Zm.73-5.2a9.92,9.92,0,0,0-.12-1.48l-.66.09a10.2,10.2,0,0,1,.11,1.39Zm-.11-1.46a4.83,4.83,0,0,0-.36-1.53l-.62.25a4.11,4.11,0,0,1,.31,1.33Zm-.35-1.51a2.66,2.66,0,0,0-.88-1.26l-.42.52a2,2,0,0,1,.67.95Zm-.85-1.23a2.2,2.2,0,0,0-1.62-.6v.67a1.57,1.57,0,0,1,1.15.4Zm-1.62-.6a6.61,6.61,0,0,0-3.42.93l.34.57a6,6,0,0,1,3.08-.83Zm-3.42.93a10.64,10.64,0,0,0-2.78,2.45l.51.42a10,10,0,0,1,2.61-2.3Zm-2.78,2.45a16,16,0,0,0-2.08,3.37l.6.28a15.78,15.78,0,0,1,2-3.23Zm-2.08,3.37a31.27,31.27,0,0,0-1.56,3.78l.63.21a34.26,34.26,0,0,1,1.53-3.7Zm-1.56,3.78a24.26,24.26,0,0,0-.9,3.75l.66.1a22.59,22.59,0,0,1,.87-3.64Zm-.9,3.75a22.36,22.36,0,0,0-.28,3.19h.67a21.29,21.29,0,0,1,.27-3.09Zm17.53,15.74-.33-.06-.11.52.52-.13Zm2.86-14.32.33.07h0Zm1.1-6.17.33.07h0Zm1.11-6.38-.33-.06h0Zm1-6.12-.33-.05h0Zm.77-5.4-.1-.31-.21.06,0,.22Zm6.77-1.43,0,.33h0Zm10.74,0-.11.32h0Zm2.21,1.43-.26.22h0Zm1.15,2.1.33-.09Zm-.44,7.05.32.11h0Zm-2.09,4-.28-.19h0Zm-3,3.47.22.24h0Zm-3.58,2.53-.16-.3-.28.15.13.29Zm2.09,4.85-.31.13h0Zm2.15,5,.31-.13h0Zm2.25,5.5.11.32.34-.12-.14-.33Zm-8.53,3-.32.1.1.33.33-.12Zm-2-6.61.33-.09h0Zm-.77-2.59-.32.09h0ZM495.12,475l-.33.08h0Zm-.28-1.59.33,0,0-.41-.4.12Zm-.72.22-.09-.32-.2.06,0,.19Zm-.82,4.13-.33-.07h0Zm-.83,4.57.33.06h0Zm-1,5.23.08.32.21-.05,0-.21Zm4-21.59-.33-.07-.08.45.45-.05Zm2.54-.88-.15-.3h0ZM501,463.3l.21.27h0Zm2.37-2.26.26.22Zm.61-3-.24.23h0Zm-1.1-.55-.11.31h0Zm-1.49-.28,0,.34Zm-3,0v.34h0Zm-1.11,0v-.33H497l-.05.27ZM482.89,490q1.49-7.32,2.86-14.32l-.66-.13q-1.36,7-2.86,14.32Zm2.86-14.33c.33-2,.7-4,1.1-6.16l-.65-.13q-.61,3.19-1.11,6.18Zm1.1-6.16c.41-2.17.77-4.31,1.11-6.4l-.66-.11q-.49,3.13-1.1,6.38Zm1.1-6.4q.56-3.19,1-6.12l-.66-.1c-.3,1.95-.63,4-1,6.11Zm1-6.11q.49-3,.77-5.42l-.66-.07c-.19,1.6-.44,3.4-.77,5.38Zm.54-5.14a37.34,37.34,0,0,1,6.71-1.42l-.08-.66a37.81,37.81,0,0,0-6.83,1.45Zm6.72-1.42a52.79,52.79,0,0,1,7.17-.49v-.67a54.13,54.13,0,0,0-7.26.5Zm7.17-.49a10,10,0,0,1,3.41.48l.23-.63a10.87,10.87,0,0,0-3.64-.52Zm3.41.48a4.4,4.4,0,0,1,2.06,1.33l.51-.43a5.08,5.08,0,0,0-2.35-1.53Zm2.07,1.34a4.47,4.47,0,0,1,1.08,1.95l.65-.17a5.21,5.21,0,0,0-1.24-2.23Zm1.08,1.95a10.05,10.05,0,0,1,.32,2.62h.67a11,11,0,0,0-.34-2.79Zm.32,2.62a12.46,12.46,0,0,1-.75,4.23l.63.23a13.32,13.32,0,0,0,.79-4.46Zm-.75,4.23a17.53,17.53,0,0,1-2.06,3.95l.56.38a19.29,19.29,0,0,0,2.13-4.1Zm-2.06,3.95a19.6,19.6,0,0,1-2.92,3.41l.45.49a20.59,20.59,0,0,0,3-3.53Zm-2.92,3.41a15.24,15.24,0,0,1-3.51,2.48l.31.6a16.29,16.29,0,0,0,3.65-2.59Zm-3.66,2.92c.66,1.46,1.36,3.08,2.09,4.84l.62-.26q-1.11-2.64-2.1-4.86Zm2.09,4.85q1.16,2.58,2.15,4.94l.61-.25c-.66-1.58-1.37-3.24-2.15-5Zm2.15,4.94c.73,1.84,1.49,3.68,2.26,5.51l.61-.26q-1.16-2.75-2.25-5.5Zm2.45,5.07-8.53,3,.22.63,8.53-3Zm-8.1,3.19q-1.11-3.53-2-6.6l-.65.18q.89,3.09,2,6.62Zm-2-6.61-.77-2.58-.64.18c.26.89.52,1.75.78,2.6Zm-.77-2.58-.71-2.59-.64.18c.22.81.45,1.67.71,2.59Zm-.71-2.59c-.22-.8-.4-1.51-.55-2.13l-.65.15c.15.63.33,1.35.56,2.16Zm-.55-2.13a15.53,15.53,0,0,1-.27-1.55l-.66.06a13.72,13.72,0,0,0,.28,1.64Zm-.7-1.84-.71.22.19.64.72-.23Zm-.94.47c-.22,1.18-.5,2.55-.83,4.13l.66.14c.33-1.59.6-3,.82-4.14Zm-.83,4.14c-.29,1.58-.57,3.1-.83,4.57l.66.12c.26-1.47.53-3,.83-4.57Zm-.83,4.57c-.33,1.72-.66,3.47-1,5.23l.66.12q.49-2.64,1-5.23Zm-.74,5-8.93,2.31.17.65,8.92-2.32Zm4.14-20.94a7.87,7.87,0,0,0,2.65-.91l-.31-.6a7.06,7.06,0,0,1-2.41.85Zm2.65-.91a19.88,19.88,0,0,0,3-1.85l-.41-.53a18,18,0,0,1-2.86,1.78Zm3-1.86a17.27,17.27,0,0,0,2.42-2.3l-.51-.43a17.64,17.64,0,0,1-2.32,2.21Zm2.42-2.3a3.66,3.66,0,0,0,1.07-2.26H504a3.1,3.1,0,0,1-.91,1.83Zm1.07-2.26a1.52,1.52,0,0,0-.5-1.19l-.44.51a.84.84,0,0,1,.27.68Zm-.48-1.17a2.64,2.64,0,0,0-1.27-.64l-.15.65a1.88,1.88,0,0,1,.94.46Zm-1.24-.63a6.17,6.17,0,0,0-1.57-.29l0,.67a5.65,5.65,0,0,1,1.4.25Zm-1.57-.29c-.56,0-1.13-.06-1.73-.06v.67c.58,0,1.15,0,1.69.06Zm-1.73-.06q-.61,0-1.29.06l.05.66c.44,0,.85-.05,1.24-.05Zm-1.26.06h-1.11v.67h1.11Zm-1.43.27-1.77,8.75.66.14,1.76-8.76Zm10.15,32.95-.33-.07-.11.51.51-.12Zm3.14-15.37.32.06h0Zm1.15-6.61-.32-.07h0Zm1.22-6.72.32.05h0Zm1-6.39.33,0h0Zm.66-5.56,0-.34-.33,0,0,.33Zm4.24,0v.33h0Zm2.2-.11v0Zm2.37-.11.33-.06-.06-.29-.28,0Zm1.38,7.44-.33.05h0Zm1.21,6.44-.33.06h0Zm1.16,5.62-.33.07h.65Zm.49-2.53.33.06h0Zm.61-3.09-.33-.07Zm.6-3.19-.32-.07h0Zm.66-3.25-.32-.07h0Zm1.6-7.38,0-.34-.23,0,0,.23Zm6.72-.83.33.07.1-.46-.47.06Zm-3.3,16,.32.07h0Zm-1.32,6.61-.33-.06h0Zm-1.16,6.39.33.06h0Zm-.94,5.67.33.05h0Zm-.6,4.36v.33h.29l0-.29Zm-1.33.27.07.33h0Zm-2.58.55-.08-.32h0Zm-2.92.66-.08-.32h0Zm-2.15.61-.33,0,0,.45.42-.16Zm-.72-8.37-.33,0h0Zm-.38-3.47-.34,0h0Zm-.39-3.47.33-.05Zm-.44-3.09.33-.05Zm-.44-2.48.33-.06h-.66Zm-1,5.35-.33-.06Zm-.55,3.25.33,0h0Zm-.61,3.19-.32-.07h0Zm-1.54,7.71.08.33.2-.05.05-.21Zm-7.72,1.94q1.66-7.94,3.14-15.37l-.65-.13q-1.48,7.44-3.14,15.37Zm3.15-15.38c.36-2.12.75-4.33,1.15-6.6l-.65-.12c-.41,2.28-.79,4.48-1.16,6.61Zm1.15-6.6c.44-2.28.85-4.52,1.21-6.73l-.65-.11q-.56,3.3-1.21,6.71Zm1.22-6.73q.54-3.36,1-6.39l-.66-.1q-.45,3-1,6.38Zm1-6.39c.29-2.06.51-3.93.66-5.58l-.66-.06q-.23,2.46-.66,5.54Zm.3-5.28c.48,0,.9.05,1.24.05v-.66c-.32,0-.71,0-1.19-.06Zm1.24.05h1.16v-.66h-1.16Zm1.16,0h1.87v-.66h-1.87Zm1.89,0h2.2l0-.66h-2.21Zm2.2-.11,2.37-.11,0-.66-2.37.11Zm2-.37c.52,2.56,1,5,1.38,7.42l.66-.11q-.62-3.58-1.38-7.44Zm1.38,7.43c.4,2.09.81,4.24,1.21,6.44l.66-.12q-.62-3.3-1.21-6.45Zm1.21,6.45q.66,3.3,1.16,5.62l.65-.14q-.5-2.31-1.15-5.61Zm1.81,5.61c.15-.73.32-1.58.5-2.53l-.66-.13c-.18,1-.34,1.8-.49,2.53Zm.5-2.53c.18-1,.38-2,.6-3.08l-.65-.14c-.22,1.07-.42,2.1-.61,3.09Zm.6-3.08c.23-1.07.43-2.14.61-3.21l-.66-.11q-.27,1.59-.6,3.18Zm.61-3.2c.22-1.1.44-2.18.66-3.25l-.65-.13c-.22,1.06-.44,2.15-.66,3.25Zm.66-3.24,1.6-7.38-.65-.15c-.55,2.54-1.09,5-1.6,7.39Zm1.31-7.12,6.72-.83-.08-.66-6.72.82Zm6.36-1.23q-1.87,8.43-3.31,16l.65.12q1.44-7.53,3.31-16Zm-3.31,16c-.44,2.16-.88,4.37-1.32,6.61l.65.13c.44-2.24.88-4.45,1.32-6.61Zm-1.32,6.61c-.41,2.21-.79,4.34-1.16,6.39l.66.12c.36-2.06.75-4.18,1.15-6.39Zm-1.16,6.39q-.55,3-.94,5.69l.66.09c.26-1.76.57-3.64.94-5.66Zm-.94,5.69c-.26,1.72-.46,3.18-.6,4.35l.66.09c.14-1.17.35-2.62.6-4.35Zm-.27,4.06-.2,0-.29.06c-.22.05-.53.11-.91.21l.15.65.9-.21.26-.05h.09Zm-1.39.28-2.6.56.15.65,2.58-.55Zm-2.6.56-2.92.66.15.65,2.92-.66Zm-2.92.66a17.53,17.53,0,0,0-2.19.62l.24.62a17.7,17.7,0,0,1,2.1-.59Zm-1.74.9q-.33-4.41-.72-8.38l-.66.07c.26,2.64.49,5.43.72,8.36Zm-.72-8.37c-.11-1.15-.24-2.31-.38-3.48l-.66.08c.14,1.17.27,2.32.38,3.46Zm-.38-3.47c-.11-1.22-.24-2.38-.39-3.49l-.66.09c.15,1.1.27,2.25.38,3.46Zm-.39-3.49c-.15-1.1-.29-2.13-.44-3.09l-.66.1c.15,1,.29,2,.44,3.08Zm-.44-3.09c-.15-1-.3-1.79-.44-2.49l-.66.13c.15.69.29,1.51.44,2.46Zm-1.1-2.48c-.11.69-.26,1.5-.44,2.41l.66.13c.18-.92.33-1.73.44-2.43Zm-.44,2.41c-.18.92-.37,1.9-.55,2.93l.66.12c.18-1,.36-2,.55-2.92ZM517.5,474c-.18,1-.37,2.11-.55,3.25l.66.11c.18-1.14.36-2.22.55-3.24Zm-.55,3.25c-.18,1.1-.39,2.16-.6,3.18l.65.14c.22-1,.42-2.1.61-3.21Zm-.61,3.19c-.47,2.46-1,5-1.54,7.71l.66.13q.82-4,1.54-7.72Zm-1.29,7.45-8,1.87.15.65,8.05-1.87Zm17.11,2-.33-.06-.09.47.47-.08Zm7.21-39.16,0-.33-.25,0-.05.25Zm17.41-1.48.32.1.15-.48-.5,0Zm-.66,2.47.32.09h0Zm-.55,2.21-.33-.08h0Zm-.39,2,0,.33.25,0,0-.25Zm-1.6.11v.33h0Zm-2.14.06v.33h0Zm-4.41,0v-.34h-.28l0,.27Zm-1.93,9.85-.33-.06-.08.43.43,0Zm3.2-.16v.33h0Zm4.35-.11.33.05.06-.42-.42,0Zm-.44,3-.33-.05h0Zm-.44,3,0,.33.25,0,0-.25Zm-1.82.11v.33h0Zm-2.48.05v.34h0Zm-3.14.11v-.33h-.27l0,.26Zm-1.87,10.14-.33-.06-.09.46.47-.07Zm8-1.27.33,0,0-.42-.42.06Zm-.55,6.28,0,.33.26,0,0-.26ZM532.49,490l7.21-39.17-.66-.12-7.21,39.16Zm6.91-38.89,17.41-1.49-.06-.67-17.41,1.49Zm17.06-1.93c-.26.82-.48,1.66-.67,2.51l.65.14a24.31,24.31,0,0,1,.66-2.44Zm-.67,2.5c-.18.7-.36,1.44-.55,2.21l.65.15c.18-.76.37-1.5.55-2.19Zm-.55,2.22c-.15.74-.28,1.4-.39,2l.66.12c.11-.58.24-1.24.38-2Zm-.09,1.72-1.58.11,0,.66c.7,0,1.24-.07,1.61-.11Zm-1.57.11c-.66,0-1.38,0-2.16.05l0,.67q1.15-.06,2.13-.06Zm-2.14.05h-2.37v.67h2.37Zm-2.37,0h-2v.67h2Zm-2.37.27-1.93,9.86.66.13,1.93-9.86Zm-1.58,10.26c1.14-.08,2.2-.13,3.19-.17l0-.66c-1,0-2.06.09-3.2.16Zm3.19-.17c.8,0,1.62-.05,2.46-.05v-.67c-.84,0-1.68,0-2.49.06Zm2.46-.05c.85,0,1.49,0,1.91-.06l-.06-.66c-.39,0-1,.05-1.85.05Zm1.55-.44c-.15,1-.3,2-.44,3l.66.1c.14-1,.29-2,.44-3Zm-.45,3c-.1,1-.25,2-.43,3l.65.12c.19-1,.34-2.06.45-3.05Zm-.14,2.74c-.35,0-1,.07-1.8.1l0,.67c.85,0,1.46-.07,1.84-.11Zm-1.78.1c-.81,0-1.65,0-2.49.06l0,.67c.84,0,1.67-.06,2.47-.06Zm-2.49.06-3.14.11,0,.67,3.14-.11Zm-3.46.38-1.87,10.14.66.12,1.87-10.14Zm-1.49,10.53,8-1.27-.1-.66-8,1.27Zm7.66-1.63-.55,6.28.66.06.55-6.28Zm-.27,6-17.79,2.76.1.65L550,487.48Zm.81,3.08-.33-.06-.1.52.51-.13Zm2.86-14.32.33.07h0Zm1.11-6.17.32.07h0Zm1.1-6.38-.33-.06h0Zm1-6.12-.33-.05h0Zm.77-5.4-.1-.31-.21.06,0,.22Zm6.77-1.43,0,.33h0Zm10.75,0-.12.32h0Zm2.2,1.43-.26.22h0Zm1.16,2.1.32-.09Zm-.45,7.05.32.11h0Zm-2.09,4-.27-.19h0Zm-3,3.47.22.24h0Zm-3.58,2.53-.16-.3-.28.15.13.29Zm2.09,4.85-.31.13h0Zm2.15,5,.31-.13h0Zm2.26,5.5.11.32.33-.12-.14-.33Zm-8.54,3-.32.1.1.33.33-.12Zm-2-6.61.32-.09h0Zm-.78-2.59-.32.09h0ZM563.27,475l-.33.08h0Zm-.28-1.59.34,0,0-.41-.4.12Zm-.71.22-.1-.32-.19.06,0,.19Zm-.83,4.13-.33-.07h0Zm-.83,4.57.33.06h0Zm-1,5.23.09.32.2-.05,0-.21Zm4-21.59-.32-.07-.09.45.45-.05Zm2.54-.88-.15-.3h0Zm2.92-1.82.2.27h0Zm2.36-2.26.26.22Zm.61-3-.24.23h0Zm-1.1-.55-.11.31h0Zm-1.49-.28,0,.34Zm-3,0v.34h0Zm-1.1,0v-.33h-.28l0,.27ZM551,490q1.49-7.32,2.86-14.32l-.65-.13q-1.38,7-2.87,14.32Zm2.86-14.33c.33-2,.7-4,1.1-6.16l-.65-.13c-.41,2.13-.77,4.19-1.11,6.18Zm1.1-6.16c.41-2.17.78-4.31,1.11-6.4l-.66-.11q-.5,3.13-1.1,6.38Zm1.11-6.4q.54-3.19,1-6.12l-.66-.1c-.3,1.95-.63,4-1,6.11Zm1-6.11q.49-3,.77-5.42l-.66-.07c-.19,1.6-.44,3.4-.77,5.38Zm.54-5.14a37.34,37.34,0,0,1,6.71-1.42l-.08-.66a37.81,37.81,0,0,0-6.83,1.45Zm6.72-1.42a52.79,52.79,0,0,1,7.17-.49v-.67a54.13,54.13,0,0,0-7.26.5Zm7.17-.49a10,10,0,0,1,3.41.48l.23-.63a10.87,10.87,0,0,0-3.64-.52Zm3.42.48a4.42,4.42,0,0,1,2,1.33l.52-.43a5.17,5.17,0,0,0-2.36-1.53Zm2.06,1.34a4.47,4.47,0,0,1,1.08,1.95l.65-.17a5.21,5.21,0,0,0-1.24-2.23Zm1.08,1.95a10.05,10.05,0,0,1,.32,2.62h.67a10.56,10.56,0,0,0-.34-2.79Zm.32,2.62a12.46,12.46,0,0,1-.75,4.23l.63.23a13.07,13.07,0,0,0,.79-4.46Zm-.75,4.23a17.9,17.9,0,0,1-2,3.95l.55.38a19.29,19.29,0,0,0,2.13-4.1Zm-2.06,3.95a19.6,19.6,0,0,1-2.92,3.41l.46.49a21,21,0,0,0,3-3.53Zm-2.92,3.41a15.24,15.24,0,0,1-3.51,2.48l.31.6a16.29,16.29,0,0,0,3.65-2.59ZM569,470.82c.66,1.46,1.36,3.08,2.09,4.84l.62-.26q-1.11-2.64-2.1-4.86Zm2.1,4.85q1.15,2.58,2.14,4.94l.62-.25c-.67-1.58-1.38-3.24-2.16-5Zm2.14,4.94c.73,1.84,1.49,3.68,2.26,5.51l.61-.26q-1.15-2.75-2.25-5.5Zm2.46,5.07-8.54,3,.22.63,8.54-3Zm-8.11,3.19q-1.11-3.53-2-6.6l-.65.18q.88,3.09,2,6.62Zm-2-6.61c-.26-.84-.52-1.7-.77-2.58l-.65.18c.26.89.52,1.75.78,2.6Zm-.77-2.58c-.26-.92-.5-1.78-.72-2.59l-.64.18.71,2.59Zm-.72-2.59c-.22-.8-.4-1.51-.55-2.13l-.65.15c.15.63.34,1.35.56,2.16Zm-.55-2.13a12.68,12.68,0,0,1-.26-1.55l-.67.06a13.72,13.72,0,0,0,.28,1.64Zm-.7-1.84-.71.22.19.64.72-.23Zm-.94.47c-.22,1.18-.5,2.55-.83,4.13l.66.14c.33-1.59.6-3,.82-4.14Zm-.83,4.14c-.29,1.58-.57,3.1-.82,4.57l.65.12c.26-1.47.53-3,.83-4.57Zm-.82,4.57c-.33,1.72-.67,3.47-1,5.23l.66.12q.49-2.64,1-5.23Zm-.75,5-8.92,2.31.16.65,8.93-2.32Zm4.14-20.94a7.87,7.87,0,0,0,2.65-.91l-.31-.6a7.06,7.06,0,0,1-2.41.85Zm2.65-.91a19.88,19.88,0,0,0,3-1.85l-.41-.53a18,18,0,0,1-2.86,1.78Zm3-1.86a17.27,17.27,0,0,0,2.42-2.3l-.51-.43A17,17,0,0,1,568.9,463Zm2.42-2.3A3.66,3.66,0,0,0,572.8,459h-.67a3.1,3.1,0,0,1-.91,1.83ZM572.8,459a1.52,1.52,0,0,0-.5-1.19l-.44.51a.84.84,0,0,1,.27.68Zm-.48-1.17a2.64,2.64,0,0,0-1.27-.64l-.15.65a1.88,1.88,0,0,1,.94.46Zm-1.24-.63a6.17,6.17,0,0,0-1.57-.29l0,.67a5.65,5.65,0,0,1,1.4.25Zm-1.57-.29c-.55,0-1.13-.06-1.73-.06v.67c.59,0,1.15,0,1.69.06Zm-1.73-.06q-.62,0-1.29.06l.06.66c.43,0,.84-.05,1.23-.05Zm-1.26.06h-1.1v.67h1.1Zm-1.43.27-1.76,8.75.65.14,1.76-8.76Z" transform="translate(0.5 0.5)"/></g></svg>